<?xml version="1.0" encoding="utf-8"?>
<svg viewBox="-18.354 37.18 332.795 393.317" xmlns="http://www.w3.org/2000/svg">
  <polygon points="57.542 120.176 146.637 190.303 238.607 121.326 148.937 51.199" style="fill: rgb(0, 73, 144);"/>
  <polygon points="47.237 135.33 138.56 206.032 139.208 277.059 78.228 232.016 77.755 262.926 138.372 309.068 138.057 344.926 48.345 275.949 49.328 311.451 136.866 378.569 137.441 417.033 20.044 324.227 20.18 218.724 47.248 240.776" style="fill: rgb(0, 73, 144);"/>
  <polygon points="182.65 417.228 273.973 346.526 274.621 275.499 213.641 320.542 213.168 289.632 273.785 243.49 273.47 207.632 183.758 276.609 184.741 241.107 272.279 173.989 272.854 135.525 155.457 228.331 155.593 333.834 182.661 311.782" style="fill: rgb(237, 23, 79);" transform="matrix(-1, 0, 0, -1, 430.078003, 552.752991)"/>
</svg>