<?xml version="1.0" encoding="utf-8"?>
<svg viewBox="416.813 -6.13 500 500" xmlns="http://www.w3.org/2000/svg">
  <polygon style="fill: rgb(4, 76, 161);" points="491.969 143.96 492.405 207.716 712.058 81.077 659.504 47.175"/>
  <polygon style="fill: rgb(4, 76, 161);" points="768.791 192.15 768.384 366.665 824.172 334.495 824.172 222.918"/>
  <polyline points="545.042 198.8 545.042 363.07 491.745 334.597 492.475 225.813" style="fill: rgb(134, 129, 126);"/>
  <polygon points="675.728 118.49 821.746 206.101 822.476 146.233 727.565 88.556" style="fill: rgb(134, 129, 126);"/>
  <path d="M 665.902 269.839 C 665.902 269.839 708.574 270.465 713.934 318.67 C 719.294 366.875 671.804 384.855 666.139 382.589 L 665.855 429.611 L 755.084 377.207 L 754.8 276.522 L 665.289 220.153 L 665.902 269.839 Z" style="fill: rgb(134, 129, 126);"/>
  <path d="M 562.598 380.569 C 562.598 380.569 605.653 379.936 611.061 331.24 C 616.469 282.545 568.552 264.382 562.837 266.671 L 562.55 219.17 L 652.581 272.107 L 652.294 373.817 L 561.979 430.76 L 562.598 380.569 Z" style="fill: rgb(4, 76, 161);" transform="matrix(-1, 0, 0, -1, 1214.560059, 649.929993)"/>
</svg>